<svg width="903" height="643" xmlns="http://www.w3.org/2000/svg" xmlns:xlink="http://www.w3.org/1999/xlink"
    xml:space="preserve" overflow="hidden">
    <defs>
        <clipPath id="clip0">
            <rect x="546" y="1742" width="903" height="643" />
        </clipPath>
    </defs>
    <g clip-path="url(#clip0)" transform="translate(-546 -1742)">
        <path
            d="M1196.7 2024.78C1188.91 2019.93 1186.68 2033.58 1178.7 2028.09 1176.64 2021.38 1184.27 2011.02 1190.69 2011.81 1190.2 2014.07 1188.09 2016.82 1190.5 2018.2 1192.11 2016.55 1193.24 2013.27 1195.72 2014.52 1194.4 2018.43 1197.59 2020.99 1196.7 2024.78Z"
            fill-rule="evenodd" />
        <path
            d="M1025.45 1932.77C1020.71 1933.95 1002.87 1927.16 1002.78 1920.59 1010.93 1926.21 1025.28 1916.37 1028.16 1927.73 1024.83 1926.63 1025.1 1929.69 1025.45 1932.77Z"
            fill-rule="evenodd" />
        <path
            d="M1156.21 2009.51C1151.01 2010.03 1141.13 1998.42 1140.12 1991.13 1150.71 1995.68 1158.53 2001.07 1156.21 2009.51Z"
            fill-rule="evenodd" />
        <path
            d="M1216.34 2139.2C1221.84 2134.58 1236.34 2123.84 1221.75 2129.13 1221.4 2122.84 1232.58 2107.97 1242.65 2114.39 1235.91 2129.38 1228.45 2142.02 1216.34 2139.2Z"
            fill-rule="evenodd" />
        <path d="M905.031 1862.07 867.246 1841.77C866.695 1839.21 931.741 1865.14 905.031 1862.07Z"
            fill-rule="evenodd" />
        <path
            d="M1343.87 2282.39C1345.32 2278.11 1339.29 2277.67 1336.32 2278.33 1345.27 2277.66 1349.34 2260.82 1357.41 2257.19 1358.43 2262.66 1350.7 2281.55 1343.87 2282.39Z"
            fill-rule="evenodd" />
        <path
            d="M1192.59 2207.59C1199.94 2199.27 1206.09 2186.98 1215.03 2183.94 1208.59 2195.26 1202.38 2207.38 1192.59 2207.59Z"
            fill-rule="evenodd" />
        <path
            d="M987.632 2087.73C974.303 2078.37 949.099 2072.59 947.516 2059.69 966.062 2071.8 983.971 2071.14 987.632 2087.73Z"
            fill-rule="evenodd" />
        <path
            d="M1231.42 2322.58C1229.48 2317.53 1231.3 2311.35 1234.5 2304.76 1240.11 2304.67 1244.07 2299.13 1249.99 2300.1 1243.46 2306.46 1241.66 2328.54 1231.42 2322.58Z"
            fill-rule="evenodd" />
        <path
            d="M1142.1 2271.35C1146.98 2264.16 1149.83 2250.26 1157.97 2253.9 1152.5 2259.11 1151.22 2278.22 1142.1 2271.35Z"
            fill-rule="evenodd" />
        <path
            d="M937.938 2168.16C927.812 2164.93 917.734 2161.84 906.357 2154.44 912.981 2148.11 933.451 2151.27 938.129 2161.77 921.979 2154.36 937.604 2163.16 937.938 2168.16Z"
            fill-rule="evenodd" />
        <path
            d="M914.583 2265.97C920.379 2254.83 926.783 2245.7 934.508 2240.97 927.469 2247.98 925.353 2271.36 914.583 2265.97Z"
            fill-rule="evenodd" />
        <path
            d="M964.097 1974.46C974.89 1982.36 990.154 1975.66 994.325 1990.7 984.377 1981.38 967.834 1986.41 964.097 1974.46Z"
            fill-rule="evenodd" />
        <path
            d="M765.325 1800.4C781.537 1809.83 796.099 1813.78 810.855 1818.37 801.474 1823.91 763.864 1805.01 765.325 1800.4Z"
            fill-rule="evenodd" />
        <path
            d="M1124.28 2268.28C1129.64 2264.64 1140.07 2241.78 1141.5 2248.32 1137.74 2257.29 1125.35 2273.65 1124.28 2268.28Z"
            fill-rule="evenodd" />
        <path
            d="M1129.14 2277.38C1137.43 2265.54 1140.79 2257.46 1146.55 2251.02 1147.46 2259.18 1137.55 2278.26 1129.14 2277.38Z"
            fill-rule="evenodd" />
        <path
            d="M1298.14 2361.67C1286.06 2360.02 1265.89 2349.18 1257.84 2340.01 1263.08 2324.48 1279.35 2308.87 1279.49 2299.71 1183.83 2251.68 1103.14 2209.99 1006.08 2156.06 1056.91 2162.65 1107.08 2200.42 1162.64 2227.19 1251.26 2269.9 1336.89 2324.67 1417.62 2344.7 1432.18 2338.49 1445.09 2308.66 1436.94 2296.65 1436.24 2311.88 1422.81 2323.44 1412.95 2329.21 1396.45 2320.81 1380.15 2312.34 1372.84 2301.17 1381.61 2285.88 1388.32 2263.73 1403.21 2268.8 1337.55 2237.03 1293.95 2200.25 1230.76 2172.9 1225.08 2185.07 1220.7 2210.92 1205.42 2207.98 1213.67 2198.66 1224.69 2182.83 1225.72 2170.19 1170.63 2131.17 1095.76 2098.1 1049.95 2056.28 1177.03 2120.26 1301.04 2211.11 1418.89 2257.74 1422.24 2248.29 1435.47 2235.86 1427.39 2229.85 1423.56 2240.49 1417.36 2243.31 1411.52 2247.29 1396.14 2236.53 1377.08 2232.97 1368.7 2224.29 1374.39 2217.48 1377.13 2200.86 1384.76 2200.45 1357.09 2225.56 1406.49 2244.4 1419.65 2232.18 1415.15 2208.43 1388.44 2190.49 1366.33 2174.32 1278.39 2110 1141.94 2054.92 1064.81 1986.35 1135.61 2030.29 1236.63 2081.95 1306.44 2122.67 1320.6 2130.92 1345 2159.6 1357.38 2130.56 1345.66 2136.03 1329.11 2125.49 1313.02 2116.46 1309.38 2111.2 1327.96 2101.37 1322.68 2092.44 1225.6 2026.5 1108.9 1940.45 997.324 1888.44 911.246 1848.31 831.412 1798.99 755.137 1771.31 728.075 1761.48 697.504 1759.7 676.666 1742.13 729.868 1750.5 783.104 1773.4 839.985 1800.67 907.621 1833.1 986.139 1863.06 1049.45 1900.21 1062.74 1908.02 1073.41 1921.06 1085.69 1929.43 1185.29 1997.26 1298.23 2048.16 1366.52 2125.75 1369.77 2136.68 1356.97 2151.6 1355.31 2158.68 1396.73 2188.98 1470.44 2219.03 1422.43 2269.4 1434.97 2274.78 1438.63 2282.82 1447.43 2289.33 1450.06 2306.9 1445 2335.46 1426.38 2352.68 1401.8 2364.56 1363.83 2331.97 1333.78 2325.65 1337.52 2354.98 1308.44 2381.16 1286 2384.38 1215.38 2362.6 1139.35 2322.81 1063.76 2284.46 1069.73 2302.27 1065.42 2330 1045.23 2349.17 972.256 2352.5 898.847 2290.1 830.188 2266.1 795.92 2254.12 780.255 2256.22 754.054 2244.67 639.643 2194.23 658.553 2108.91 596.404 2036.62 588.249 2027.14 576.424 2019.56 567.715 2011.47 561.571 2005.75 540.75 1997.49 548.127 1981.46 554 1970.97 573.836 2001.02 578.357 1997.71 578.199 1990.56 559.051 1969.5 572.715 1971.95 630.292 2036.26 636.693 2151.61 720.511 2210.41 763.291 2240.43 814.082 2249.08 863.305 2270.9 917.59 2294.96 965.338 2330.95 1021.21 2339.5 1013.06 2329.29 993.539 2322.5 983.618 2312.81 991.186 2298.21 998.703 2283.43 1007.79 2273.86 1024.17 2276.8 1035.23 2289.85 1049.26 2299.39 1049.75 2314.09 1038.63 2330.97 1036.52 2341.23 1124.27 2260.7 836.684 2207.4 826.389 2134.2 881.328 2189.05 1023.31 2255.21 1122.1 2302.81 1192.74 2336.86 1325.34 2420.85 1319.67 2327.81 1320.18 2340.13 1306.71 2356.99 1298.2 2361.72ZM1332.76 2097.86C1328.08 2101.04 1325.14 2109.97 1319.6 2110.27 1326.17 2118.36 1338.42 2128 1348.48 2129.03 1360.37 2113.49 1342.46 2106.91 1332.76 2097.86ZM1394.12 2273.66 1379.24 2301.37C1385.87 2309.93 1401 2315.94 1413.15 2322.84 1442.08 2309.09 1424.73 2275.8 1394.12 2273.66ZM1282.99 2311.34C1274.89 2314.84 1270.53 2330.73 1264.23 2340.22L1291.94 2355.1C1319.65 2350.45 1314.36 2310.07 1282.99 2311.34ZM1010.07 2281.58C1002.65 2287.34 997.155 2299.47 991.309 2310.46 1005.95 2317.31 1011.31 2326.96 1027.74 2333.27 1037.19 2328.36 1043.63 2309.76 1041.46 2301.69 1028.8 2295.64 1024.78 2287 1010.07 2281.58Z"
            fill-rule="evenodd" />
        <path
            d="M275.195 137.477C275.195 213.417 213.633 274.977 137.696 274.977 61.7581 274.977 0.196686 213.417 0.196686 137.477 0.196686 61.5368 61.7581-0.0227362 137.696-0.0227362 213.633-0.0227362 275.195 61.5368 275.195 137.477Z"
            fill="#5F8DD3" fill-rule="evenodd"
            transform="matrix(-0.959355 -0.282202 -0.282202 0.959355 943.978 1870.33)" />
        <path
            d="M145.222 98.6337C145.222 123.402 147.139 148.231 149.45 172.886 150.975 189.098 135.951 188.998 124.47 188.998L24.7475 188.998C10.1627 188.998-0.128839 183.73 1.43419 168.055 4.42346 138.02 5.25459 107.726 3.99724 77.576 3.4126 63.4543 2.45515 49.3506 1.21765 35.2758 0.498392 27.1081-1.69078 18.6729 4.08386 11.6651 12.0008 2.05456 33.6572 4.21955 44.7698 3.4126 59.8334 2.31801 74.8996 1.22631 89.9661 0.134613 101.137-0.675591 107.043 2.76985 116.303 9.78163 126.41 17.4354 146.679 31.0985 149.496 44.5464 150.319 48.4671 148.056 54.3562 147.569 58.2574 145.898 71.6386 145.227 85.1504 145.227 98.6308"
            fill="#FFFFFF" fill-rule="evenodd"
            transform="matrix(-0.959355 -0.282202 -0.282202 0.959355 867.229 1887.38)" />
        <path
            d="M18.4799 5.70643C-7.62457 5.69813 1.58396 40.8859 2.62621 56.1617 4.90741 89.6659 5.04311 123.184 2.47753 156.672 1.20285 173.34-2.24656 192.155 21.7622 192.155L59.6588 192.155 115.962 192.155C125.453 192.155 143.223 195.05 149.56 186.149 153.755 180.255 152.059 172.8 151.493 166.16 150.324 152.463 149.344 138.749 148.689 125.018 147.477 99.6842 147.336 73.7628 152.096 48.7461 154.149 37.9193 134.248 23.4988 127.365 17.6718 119.247 10.7914 107.819-0.771588 96.3106 0.0609908 70.365 1.94124 44.4212 3.82329 18.4712 5.70643M3.52953 176.067C8.25902 153.368 7.34705 127.788 7.34705 104.78 7.34705 78.2545 5.70174 51.5979 2.88245 25.2235 0.93832 7.0374 23.6298 8.20561 35.4422 7.34921 53.5698 6.0352 71.6963 4.71939 89.8225 3.40538 103.735 2.39741 110.828 7.48346 121.913 16.6252 130.445 23.6673 151.092 37.6432 148.87 50.4383 144.178 77.4331 144.65 105.136 146.185 132.39 146.864 144.436 147.754 156.473 148.802 168.495 149.441 175.848 150.854 185.119 142.053 188.289 135.473 190.663 126.329 189.282 119.53 189.282L73.6516 189.282 31.0198 189.282C21.0483 189.282 3.52953 190.235 3.52953 176.072"
            fill="#737373" fill-rule="evenodd"
            transform="matrix(-0.959355 -0.282202 -0.282202 0.959355 869.008 1886.1)" />
        <path
            d="M123.266 88.9979C123.266 111.293 128.211 134.498 126.98 156.619 126.98 173.315 106.809 169.699 95.5618 169.699L39.1889 169.699C29.0334 169.699 7.86818 173.168 1.95207 162.317-1.03143 156.845 1.40965 148.319 1.86148 142.546 3.15276 126.048 3.79875 109.494 3.79875 92.9471 3.79875 76.7806 3.11053 60.6126 2.10942 44.4785 1.60381 36.3447-0.831857 26.522 0.717454 18.3885 3.82979 2.01955 28.4271 4.80059 40.8584 3.82762 50.0002 3.10837 59.142 2.39308 68.2837 1.67671 70.9771 1.46306 80.8381-1.00364 83.2157 0.502723 85.7783 0.502723 87.3345 25.3852 88.2566 28.2452 92.1109 40.1865 102.547 37.9832 113.13 38.4957 119.434 38.8017 127.579 37.4069 126.343 45.0747 124.011 59.5617 123.266 74.3435 123.266 88.9979"
            fill="#F4F2F2" fill-rule="evenodd"
            transform="matrix(-0.959355 -0.282202 -0.282202 0.959355 852.878 1894.21)" />
        <path
            d="M4.45522 0.0274278C3.29134 8.09446 2.35085 16.1997 1.68392 24.3234 1.14583 30.8964-2.14045 47.5598 3.2585 52.9606 14.6432 64.3453 44.2988 47.7991 55.4724 41.944 43.166 43.8528 26.474 47.2217 14.5952 42.3265 4.94098 38.3473 5.56243 9.22874 4.45522 0.0274278"
            fill="#ADADAD" fill-rule="evenodd"
            transform="matrix(-0.959355 -0.282202 -0.282202 0.959355 778.334 1866.85)" />
    </g>
</svg>