<svg width="650" height="550" xmlns="http://www.w3.org/2000/svg" xmlns:xlink="http://www.w3.org/1999/xlink"
    xml:space="preserve" overflow="hidden">
    <defs>
        <clipPath id="clip0">
            <rect x="661" y="966" width="650" height="550" />
        </clipPath>
    </defs>
    <g clip-path="url(#clip0)" transform="translate(-661 -966)">
        <path
            d="M674.67 1165.28C681.96 1168.96 676.623 1180.69 687.602 1182.02 692.351 1181.93 687.801 1178.49 689.359 1174.09 695.241 1180.18 700.652 1186.57 697.891 1198.16 688.07 1192.31 682.066 1184.03 671.741 1178.5L674.67 1165.28Z"
            fill-rule="evenodd" />
        <path
            d="M703.153 1174.36C703.158 1200.85 735.317 1206.84 747.237 1225.73 729.695 1219.74 718.467 1204.58 705.226 1202.55 709.096 1190.25 699.282 1186.67 703.153 1174.36Z"
            fill-rule="evenodd" />
        <path
            d="M1044.39 1285.98C1059.64 1289.16 1062.8 1319.64 1066.16 1337.95 1055.03 1323.09 1056.59 1300.16 1044.39 1285.98Z"
            fill-rule="evenodd" />
        <path
            d="M1238.25 1412.09C1243.34 1419.16 1227.64 1423.73 1219.46 1421.8 1223.7 1415.38 1233.28 1417.34 1238.25 1412.09Z"
            fill-rule="evenodd" />
        <path
            d="M1127.6 1448.58C1133.75 1456.18 1119.96 1462.48 1117.62 1468.56 1111.47 1460.96 1125.26 1454.66 1127.6 1448.58Z"
            fill-rule="evenodd" />
        <path
            d="M666.388 1202.25C681.038 1211.4 724.898 1228.67 743.652 1241.55 799.701 1280.06 809.818 1363.27 916.419 1363.03 908 1351.75 896.819 1342.22 887.324 1331.63 907.164 1337.76 915.227 1357.07 934.337 1369.77 944.935 1376.82 961.862 1379.22 974.29 1389.72 989.907 1402.91 1000.13 1426.49 1015.15 1443.15 1046.28 1477.69 1065.72 1504.49 1110.61 1475.39 1102.32 1484.94 1092.14 1491.53 1076.85 1490.1 1104.02 1500.94 1135.87 1484.01 1141.15 1462.74 1147.54 1436.96 1115.74 1393.67 1104.96 1363.21 1085.59 1308.46 1088.06 1271.78 1076.39 1229.31 1086.57 1226.69 1081.92 1252.96 1092.27 1257.78 1105.61 1252.6 1107.36 1229.22 1123.67 1228.69 1118.24 1241.54 1110.88 1251.36 1104.9 1263.36 1112.37 1270.32 1118.84 1271.94 1125.46 1270.69 1143.21 1234.59 1157.69 1194.52 1194.43 1197.22 1169.55 1210.7 1122.55 1255.08 1148.38 1292.4 1173.91 1280.21 1187.91 1249.93 1215.31 1240.67 1217.94 1250.88 1209.96 1252.05 1226.77 1251.53 1215.79 1258.05 1199.65 1256.47 1190.36 1265.65 1193.1 1270.86 1206.52 1262.71 1217.38 1268.86 1191.59 1271.14 1170.15 1280.24 1159.26 1305.91 1157.96 1325.28 1187.41 1334.25 1187.78 1364.92 1187.89 1373.91 1180.24 1382.59 1179.28 1390.77 1175.61 1421.93 1211.22 1459.39 1234.81 1428.03 1236.92 1437.41 1232.13 1438.45 1240.4 1440.36 1253.1 1442.65 1267.9 1431.74 1273.86 1414.49 1296.33 1349.46 1309.48 1215.3 1293.68 1174.83 1287.95 1160.11 1272.9 1145.7 1254.61 1138.44 1168.76 1104.39 1067.79 1130.17 983.227 1111.59 878.579 1088.61 802.159 1010 716.77 974.902L718.527 966.972C759.851 989.946 798.041 1010.22 837.215 1032.1 873.438 1052.32 911.099 1079.99 956.488 1094.58 1008.32 1111.23 1055.12 1109.41 1102.75 1110.34 1173.03 1111.72 1289.31 1110.92 1306.9 1177.76 1315.73 1211.32 1305.97 1261.1 1302.86 1296.12 1298.97 1339.98 1298.38 1393.02 1282.68 1424.76 1277.4 1435.42 1261.15 1442.5 1247.46 1458.56 1234.52 1473.71 1226.99 1488.01 1214.88 1492.94 1206.9 1496.18 1195.45 1489.77 1181.4 1493.84 1167.61 1497.83 1160.24 1513.37 1140.59 1515.3 1126.82 1516.65 1108.5 1509.99 1091.84 1510.05 1072.17 1510.12 1059.58 1517.33 1046.61 1513.89 1026.64 1508.6 990.879 1482.72 972.277 1461.37 963.174 1450.92 962.292 1435.07 952.871 1423.79 918.237 1382.27 832.338 1368.8 791.613 1338.14 761.187 1315.23 753.541 1272.67 729.588 1255.07 710.844 1241.28 677.256 1235.35 661.145 1226.04L666.417 1202.24ZM1189.61 1481.8C1197.89 1472.73 1202.86 1480.62 1211.05 1472.69 1213.03 1480.01 1200.86 1481.94 1208.12 1485.9 1216.5 1477.69 1227.66 1473.82 1233.07 1460.93 1216.07 1455.86 1199.34 1450.63 1184.01 1444.51 1176.82 1455.84 1170.36 1480.39 1189.61 1481.8Z"
            fill-rule="evenodd" />
        <path
            d="M1006.78 1255.47C1010.72 1247.81 1019.25 1275.6 1022.06 1261.63 1029.52 1272.01 1037.7 1281.94 1036.18 1298.04 1024.47 1285.07 1018.49 1268.45 1006.78 1255.47Z"
            fill-rule="evenodd" />
        <path
            d="M914.608 1271.11C917.672 1267.84 927.003 1279.7 928.127 1285.19 932.307 1284.91 927.832 1281.58 929.884 1277.26 939.379 1289.38 947.32 1302.48 957.806 1313.96 942.816 1309.1 923.507 1287.4 914.608 1271.11Z"
            fill-rule="evenodd" />
        <path
            d="M988.888 1248.75C980.007 1241.54 964.24 1238.73 963.325 1226.45 975.84 1223.2 988.88 1236.72 988.888 1248.75Z"
            fill-rule="evenodd" />
        <path
            d="M724.466 1254.51C672.895 1198.77 676.277 1111.77 732.019 1060.2 787.76 1008.63 874.754 1012.01 926.325 1067.76 977.897 1123.5 974.514 1210.49 918.773 1262.06 863.031 1313.63 776.038 1310.25 724.466 1254.51Z"
            fill="#5F8DD3" fill-rule="evenodd" />
        <path
            d="M799.128 1090.31C823.102 1073.1 853.65 1062.97 863.343 1078.2 877.343 1091.2 897.253 1100.24 900.343 1122.37 900.234 1142.44 902.278 1161.51 901.851 1181.66 894.742 1212.57 848.035 1252.31 821.373 1246.54 798.09 1245.81 783.663 1232.62 760.534 1231.85 742.24 1233.46 720.411 1236.77 717.285 1219.58 708.967 1204.06 717.503 1177.85 739.401 1154.85 757.599 1132.15 776.669 1110.23 799.127 1090.31Z"
            fill="#C7C7C7" fill-rule="evenodd" />
        <path
            d="M802.634 1087.98C827.007 1072.03 855.999 1064.01 864.873 1079.78 881.137 1094.94 904.829 1106.37 900.522 1137.32 895.937 1158.66 910.654 1171.76 895.104 1196.85 880.058 1224.15 843.268 1251.34 821.01 1246.41 801.702 1245.02 787.612 1236.44 770.777 1231.84 753.34 1230.04 726.323 1239.6 720.038 1223.44 712.003 1210.83 711.087 1189.23 730.429 1167.13 751.576 1139.39 774.565 1111.2 802.639 1087.97ZM786.047 1107.72C782.876 1124.81 799.69 1130.52 815.195 1129.28 823.839 1130.94 857.708 1120.02 843.189 1110.84 851.155 1091.37 881.346 1106.69 866.035 1092.93 858.926 1088.42 842.006 1088.05 840.297 1104.92 833.838 1113.79 811.569 1131.64 820.205 1115.04 812.049 1112.57 782.927 1115.53 803.682 1096.16 822.234 1077.71 787.056 1100.84 786.047 1107.72ZM794.263 1101.6C802.641 1099.77 788.458 1104.57 794.263 1101.6ZM807.814 1090.35C815.625 1089.09 802.126 1093.03 807.814 1090.35ZM793.331 1109.65C797.477 1111.15 790.14 1110.38 793.331 1109.65ZM790.917 1114.51C798.7 1112.75 787.212 1116.53 790.917 1114.51ZM796.492 1109.12C794.774 1112.03 796.449 1105.76 796.492 1109.12ZM797.559 1114.04C805.457 1112.81 794.625 1116.24 797.559 1114.04ZM802.518 1117.99C809.508 1110.13 804.645 1123.29 802.518 1117.99ZM811.339 1115.99C822.212 1109.18 809.606 1124 811.339 1115.99ZM803.882 1123.86C804.265 1126.25 801.683 1123.22 803.882 1123.86ZM804.044 1125C815.367 1118.67 796.865 1131.4 804.044 1125ZM852.08 1093.26C859.252 1090.44 850.189 1095.82 852.08 1093.26ZM850.086 1096.49C856.954 1092.64 848.198 1099.28 850.086 1096.49ZM826.753 1119.42C828.072 1124.31 820.306 1120.34 826.753 1119.42ZM831.797 1123.41C829.652 1126.7 831.562 1117.76 831.797 1123.41ZM840.274 1121.65C848.656 1122.12 833.768 1124.52 840.274 1121.65ZM848.548 1116.03C849.616 1119.13 845.178 1115.73 848.548 1116.03ZM772.643 1121.37C762.344 1136.21 792.066 1138.22 783.114 1126.51 780.722 1123.73 779.104 1118.9 772.643 1121.37ZM783.57 1128.73C787.665 1127.8 781.084 1130.58 783.57 1128.73ZM760.012 1135.09C754.062 1141.73 764.617 1133.72 760.012 1135.09ZM763.248 1134.39C766.156 1134.59 762.966 1131.6 763.248 1134.39ZM747.641 1150.75C755.829 1152.89 757.922 1171.8 771.804 1153.44 760.359 1144.74 791.112 1135.55 787.864 1150.02 789.011 1167.25 812.668 1143.55 795.182 1141.79 787.229 1132.26 767.294 1143.76 754.379 1142.87 751.095 1144.29 748.878 1148.11 747.642 1150.75ZM761.606 1153.44C765.733 1153.02 759.796 1155.47 761.606 1153.44ZM792.814 1149.34C797.661 1149.98 789.404 1150.56 792.814 1149.34ZM813.552 1093.91C816.599 1098.87 817.166 1086.71 813.552 1093.91ZM808.959 1098.95C810.252 1104.88 830.491 1114.07 824.958 1100.98 821.627 1097.86 816.45 1095.31 808.959 1098.95ZM815.825 1099.08C819.197 1099.05 812.93 1101.29 815.825 1099.08ZM821.836 1100.92C829.541 1096.36 818.673 1104.45 821.836 1100.92ZM743.91 1159.39C744.222 1165.53 747.673 1153.4 743.91 1159.39ZM739.672 1165.59C736.234 1174.4 749.225 1163.8 739.672 1165.59ZM829.029 1082.56C830.745 1084.61 829.855 1079.61 829.029 1082.56ZM733.531 1173.46C736.425 1181.57 737.496 1165.56 733.531 1173.46ZM785.247 1125.6C791.683 1129.29 790.632 1116.12 785.247 1125.6ZM832.212 1082.34C833.582 1079.34 828.122 1085.73 832.212 1082.34ZM836.776 1079.16C836.872 1082.11 839.046 1076.05 836.776 1079.16ZM835.747 1081.65C837.243 1085.87 837.232 1077.14 835.747 1081.65ZM808.619 1107.37C811.117 1111.96 812.031 1102.66 808.619 1107.37ZM806.201 1110.57C809.129 1110.88 805.532 1108.05 806.201 1110.57ZM739.56 1174.47C742.458 1184.84 753.144 1162.04 739.56 1174.47ZM781.643 1136.37C783.346 1138.06 782.352 1133.48 781.643 1136.37ZM813.184 1109.06C816.649 1106.96 809.75 1109.15 813.184 1109.06ZM835.463 1088.76C840.065 1088.5 835.006 1084.8 835.463 1088.76ZM773.272 1146.73C776.193 1148.96 774.844 1143.42 773.272 1146.73ZM751.257 1168.52C755.169 1173.67 758.324 1160.06 751.257 1168.52ZM825.415 1102.49C828.88 1100.39 821.981 1102.58 825.415 1102.49ZM852.694 1077.52C854.073 1079.95 853.376 1074.89 852.694 1077.52ZM841.438 1087.89C846.664 1096.99 856.32 1073.51 841.438 1087.89ZM744.906 1179.54C745.83 1184.14 750.137 1174.43 744.906 1179.54ZM753.079 1174.15C756.938 1178.36 759.032 1165.98 753.079 1174.15ZM743.889 1184.1C747.533 1192.67 765.577 1172.46 743.889 1184.1ZM762.222 1166.74C765.713 1172.63 767.596 1157.4 762.222 1166.74ZM782.33 1150.29C786.729 1147.77 779.269 1149.38 782.33 1150.29ZM729.964 1198.25C732.992 1195.03 723.207 1200.39 729.964 1198.25ZM857.308 1082.52C859.149 1084.48 857.887 1079.49 857.308 1082.52ZM759.557 1174.2C766.726 1174.74 758.617 1167.84 759.557 1174.2ZM732.84 1197.6C732.952 1201.84 736.736 1193.77 732.84 1197.6ZM766.803 1166.49C767.91 1169.07 768.446 1162.91 766.803 1166.49ZM800.159 1136.6C802.484 1134.84 796.35 1137.02 800.159 1136.6ZM729.759 1202.57C734.412 1204.76 728.629 1198.96 729.759 1202.57ZM772.569 1165.19C774.41 1167.15 773.148 1162.16 772.569 1165.19ZM768.069 1173.34C772.426 1175.45 783.018 1188.65 786.56 1175.42 784.238 1170.81 777.685 1160.02 768.069 1173.34ZM776.52 1172.25C780.564 1173.38 772.372 1172.94 776.52 1172.25ZM733.271 1201.63C733.834 1207.46 738.657 1196.1 733.271 1201.63ZM745.94 1190.86C747.437 1195.08 747.424 1186.35 745.94 1190.86ZM860.856 1084.47C862.934 1085.24 860.511 1082.49 860.856 1084.47ZM805.626 1135.92C804.718 1147.54 830.113 1132.67 814.405 1132.78 811.568 1133.46 808.561 1134.83 805.626 1135.92ZM798.823 1142.63C801.927 1142.86 798.262 1140.02 798.823 1142.63ZM810.264 1132.46C813.782 1134.57 810.182 1128.78 810.264 1132.46ZM762.665 1176.85C766.2 1178.12 762.944 1172.58 762.665 1176.85ZM813.351 1131.86C815.061 1137.43 820.959 1124.81 813.351 1131.86ZM803.829 1141.9C804.768 1147.15 809.484 1135.72 803.829 1141.9ZM735.431 1207.16C738.358 1214.97 748.269 1197.76 735.431 1207.16ZM730.869 1213.01C729.037 1221.33 735.483 1206.76 730.869 1213.01ZM820.612 1130.45C820.065 1135.68 822.931 1127.69 820.612 1130.45ZM792.336 1156.88 792.418 1157.01 792.336 1156.88ZM766.332 1182.56C772.233 1183.65 767.29 1177.4 766.332 1182.56ZM864.973 1091.73C867.81 1093.52 865.458 1087.79 864.973 1091.73ZM733.71 1213.25C738.68 1221.37 755.609 1200.42 733.71 1213.25ZM823.341 1130.57C825.045 1132.25 824.051 1127.67 823.341 1130.57ZM808.083 1145.16C810.828 1145.35 807.345 1142.8 808.083 1145.16ZM754.557 1195.63C756.635 1196.4 754.213 1193.65 754.557 1195.63ZM761.795 1189.29C761.77 1193.48 767.046 1185.06 761.795 1189.29ZM755.146 1198.15C758.263 1203.96 763.571 1189.27 755.146 1198.15ZM812.815 1146.51C810.571 1159.86 845.424 1148.42 830.593 1140.67 826.353 1139.02 818.698 1139.83 812.815 1146.51ZM824.663 1149.59C830.988 1147.2 820.689 1154.55 824.663 1149.59ZM806.595 1152.75C815.422 1150.95 806.382 1145.04 806.595 1152.75ZM798.844 1160.6C798.526 1166.69 803.431 1157.12 798.844 1160.6ZM828.77 1132.67C830.848 1133.44 828.425 1130.69 828.77 1132.67ZM855.694 1109.68C851.461 1116.07 860.899 1108.74 855.694 1109.68ZM836.286 1128.54C838.259 1133.02 841.081 1122.57 836.286 1128.54ZM824.68 1139.55C832.336 1141.17 826.753 1130.84 824.68 1139.55ZM765.145 1194.83C764.961 1199.03 767.204 1191.72 765.145 1194.83ZM833.836 1132.49C837.267 1134.4 833.409 1130.13 833.836 1132.49ZM804.859 1160.5C810.155 1165.41 813.131 1151.62 804.859 1160.5ZM838.995 1131.17C849.065 1131.14 852.39 1140.76 846.125 1144.37 852.786 1145.21 868 1152.94 852.066 1159.78 840.405 1148.51 823.909 1184.62 847.014 1170.32 855.48 1162.61 877.087 1154.59 862.97 1169.21 855.284 1168.29 838.987 1175.94 850.605 1180.08 853.125 1182.84 868.689 1195.97 855.339 1198.45 851.248 1192.69 830.693 1197.66 839.949 1185.53 836.414 1181.17 807.108 1185.81 822.111 1191.48 834.906 1196.98 838.489 1210.53 845.641 1221.14 856.417 1225.53 875.715 1209.21 887.94 1198.08 902.245 1179.53 893.693 1166.58 884.62 1159.83 876.008 1152.78 881.573 1135.23 864.087 1138.17 861.904 1129.79 852.928 1122.54 838.995 1131.17ZM849.581 1131.3C851.948 1132.41 846.41 1132.16 849.581 1131.3ZM852.693 1130.27C850.975 1133.17 852.65 1126.9 852.693 1130.27ZM854.117 1132.75C852.399 1135.65 854.074 1129.38 854.117 1132.75ZM858.221 1144.12C865.062 1137.92 861.264 1148.67 858.221 1144.12ZM843.5 1162.25C842.893 1164.93 842.203 1160.62 843.5 1162.25ZM837.572 1168.77C839.687 1170.44 834.228 1169.58 837.572 1168.77ZM867.232 1151.26C877.257 1151.89 859.237 1153.97 867.232 1151.26ZM831.225 1186.18C831.346 1190.14 828.709 1184.96 831.225 1186.18ZM834.315 1196.12C838.056 1196.25 831.24 1197.73 834.315 1196.12ZM840.034 1194.98C842.15 1196.65 836.69 1195.79 840.034 1194.98ZM877.515 1163.85C881.297 1164.95 869.552 1164.65 877.515 1163.85ZM863.543 1176.03C873.627 1164.98 869.297 1181.1 863.543 1176.03ZM860.691 1180.36C867.952 1175.23 856.595 1185.22 860.691 1180.36ZM878.626 1171.81C885.41 1174.3 893.954 1190.66 880.699 1195.65 875.635 1191.2 870.944 1182.73 878.626 1171.81ZM886.644 1166.96C887.254 1169.09 884.702 1166.47 886.644 1166.96ZM849.522 1203.65C850.163 1205.99 847.119 1203.17 849.522 1203.65ZM888.539 1169.48C886.994 1172.53 887.207 1164.78 888.539 1169.48ZM846.338 1209.61C851.832 1205.61 846.307 1212.26 846.338 1209.61ZM867.891 1190.49C870.791 1194.42 861.548 1191.95 867.891 1190.49ZM861.462 1200.97C859.744 1203.88 861.419 1197.6 861.462 1200.97ZM850.232 1215.77C853.059 1216.37 846.727 1217.45 850.232 1215.77ZM865.571 1204.58C869.724 1212.28 852.601 1211.55 865.571 1204.58ZM851.108 1217.72C859.665 1213.46 847.309 1222.64 851.108 1217.72ZM869.798 1203.89C872.938 1205.51 865.521 1205.53 869.798 1203.89ZM858.874 1216.24C862.168 1219.63 854.445 1216.39 858.874 1216.24ZM875.179 1202.21C878.105 1204.17 870.606 1203.9 875.179 1202.21ZM889.099 1191.28C889.709 1193.41 887.157 1190.78 889.099 1191.28ZM813.793 1154.63C817.345 1158.22 813.697 1150.39 813.793 1154.63ZM738.562 1224.09C737.922 1222.09 732.519 1229.59 738.562 1224.09ZM777.856 1187.37C779.572 1189.41 778.682 1184.42 777.856 1187.37ZM763.732 1200.83C766.098 1205.08 765.78 1195.77 763.732 1200.83ZM844.206 1126.55C844.912 1133.41 849.601 1118.57 844.206 1126.55ZM832.825 1137.81C838.46 1139.34 834.919 1130.57 832.825 1137.81ZM801.477 1166.08C806.478 1174.13 821.417 1154.91 801.477 1166.08ZM759.369 1205.23C769.506 1208.01 775.892 1225.57 792.638 1202.84 810.9 1192.82 800.798 1227.76 819.531 1204.73 813.782 1191.6 787.903 1203.33 772.695 1202.29 769.522 1200.96 764.29 1201.59 759.37 1205.23ZM773.501 1209.74C783.93 1205.04 769.038 1216.19 773.501 1209.74ZM785.894 1203.16C792.147 1200.74 784.146 1205.5 785.894 1203.16ZM788.06 1204.05C787.088 1206.31 787.156 1201.6 788.06 1204.05ZM812.7 1205.38C813.888 1211.48 808.224 1203.79 812.7 1205.38ZM748.299 1216.28C750.438 1223.79 757.347 1208.93 748.299 1216.28ZM781.786 1186.98C786.488 1194.16 789.171 1178.66 781.786 1186.98ZM739.385 1226.42C740.289 1223.4 734.949 1230.96 739.385 1226.42ZM857.579 1118.6C861.628 1122.2 862.737 1111.64 857.579 1118.6ZM767.54 1200.24C769.69 1204.45 772.322 1193.47 767.54 1200.24ZM854.116 1121.37 854.303 1121.4 854.116 1121.37ZM873.784 1103.13C858.119 1122.31 892.884 1128.28 884.393 1108.7 882.287 1105.4 878.796 1103.07 873.784 1103.13ZM877.982 1111.09C889.819 1109.21 870.208 1121.57 877.982 1111.09ZM755.831 1212.07C759.702 1215.93 758.696 1205.04 755.831 1212.07ZM813.794 1158.87C816.331 1162.05 816.33 1153.22 813.794 1158.87ZM835.187 1141.59C836.09 1138.56 830.751 1146.13 835.187 1141.59ZM852.906 1125.79C856.485 1130.02 858.644 1117.8 852.906 1125.79ZM757.974 1216.09C763.269 1220.14 760.806 1210.54 757.974 1216.09ZM748.135 1226.07C757.285 1229.47 762.575 1216.04 748.135 1226.07ZM790.077 1185.98C793.094 1191.12 799.416 1178.87 790.077 1185.98ZM752.756 1220.92C755.086 1227.95 760.641 1213.52 752.756 1220.92ZM823.24 1158.48C826.158 1156.8 820.895 1158.36 823.24 1158.48ZM787.137 1191.44C788.079 1201.13 799.368 1180.98 787.137 1191.44ZM826.157 1156.22C828.35 1156.74 825.549 1154.5 826.157 1156.22ZM862.253 1123.32C863.517 1128.52 867.466 1116.99 862.253 1123.32ZM811.313 1171.43C808.925 1184.29 830.37 1164.76 811.313 1171.43ZM750.218 1229.09C751.372 1231.34 750.978 1226.79 750.218 1229.09ZM830.163 1156.81C837.989 1163.23 847.043 1144.8 830.163 1156.81ZM863.815 1126.27C859.734 1135.09 871.989 1124.53 863.815 1126.27ZM817.202 1170.72C820.21 1175.74 822.657 1162.92 817.202 1170.72ZM860.907 1130.67C861.919 1133.2 862.285 1127.44 860.907 1130.67ZM788.688 1198.02C791.589 1199.03 788.378 1195.26 788.688 1198.02ZM840.389 1150.25C842.604 1156.03 848.84 1141.85 840.389 1150.25ZM757.112 1228.43C759.091 1225.74 752.813 1231.51 757.112 1228.43ZM798.325 1190.37C799.614 1196.32 806.899 1182.7 798.325 1190.37ZM823.792 1168.43C826.703 1171.72 825.098 1163.51 823.792 1168.43ZM759.142 1227.89C761.062 1231.14 762.002 1223.02 759.142 1227.89ZM793.772 1197.11C797.387 1203.2 801.882 1187.73 793.772 1197.11ZM832.225 1162.77C836.915 1160.61 829.085 1162.2 832.225 1162.77ZM825.852 1168.65C828.332 1172.58 828.54 1162.63 825.852 1168.65ZM848.503 1149.28C851.317 1152.18 851.78 1143.29 848.503 1149.28ZM876.402 1125.42C877.545 1133.9 889.471 1116.4 876.402 1125.42ZM888.193 1114.94C890.933 1115.77 887.508 1112.37 888.193 1114.94ZM813.902 1184.41C821.312 1188.53 836.958 1172.6 818.625 1181.5L816.251 1182.9 813.902 1184.41ZM824.157 1180.42C823.827 1182.76 822.849 1179.28 824.157 1180.42ZM801.258 1196.18C805.948 1202.39 808.865 1185.1 801.258 1196.18ZM780.212 1217.71C785.001 1216.83 776.813 1217.08 780.212 1217.71ZM847.956 1153.79C850.568 1160.22 855.408 1144.59 847.956 1153.79ZM792.541 1206.54C796.496 1208.78 794.913 1200.32 792.541 1206.54ZM873.51 1133.3C878.167 1137.41 873.718 1130.27 873.51 1133.3ZM871.157 1137.47C874.153 1144.05 874.265 1129.07 871.157 1137.47ZM784.077 1217.16C790.599 1221.48 805.403 1211.11 788.014 1216.39L784.077 1217.16ZM880.581 1129.31C876.799 1141 898.069 1124.76 881.42 1129.43L880.581 1129.31ZM775.39 1226.78C776.7 1224.26 770.746 1230.65 775.39 1226.78ZM792.235 1211.74C794.291 1216.13 794.791 1206.02 792.235 1211.74ZM801.183 1206.03C804.207 1202.9 797.734 1207.34 801.183 1206.03ZM885.782 1128.34C884.593 1135.66 890.066 1124.2 885.782 1128.34ZM813.297 1194.73C815.194 1198.13 815.307 1189.98 813.297 1194.73ZM795.868 1211.06C797.946 1211.83 795.523 1209.08 795.868 1211.06ZM810.199 1198.7C812.088 1201.01 811.286 1194.92 810.199 1198.7ZM788.015 1220.14C790.909 1226.66 805.033 1212.95 788.015 1220.14ZM783.203 1226.1C788.657 1226.37 782.856 1224.25 783.203 1226.1ZM838.227 1176.6C840.003 1178.84 837.836 1170.61 838.227 1176.6ZM815.613 1198.49C818.222 1198.89 815.432 1195.76 815.613 1198.49ZM839.095 1179.6C841.968 1179.75 837.963 1177.83 839.095 1179.6ZM820.742 1197.78C821.746 1201.18 821.949 1195.65 820.742 1197.78ZM880.397 1147.53C883.954 1148.41 881.123 1143.94 880.397 1147.53ZM790.755 1229.86C791.948 1233.5 794.048 1225.73 790.755 1229.86ZM891.961 1140.67C898.8 1142.49 888.377 1135.96 891.961 1140.67ZM864.432 1163.09C867.737 1161.88 861.737 1162.38 864.432 1163.09ZM859.052 1168.21C866.012 1169.81 861.999 1158.97 859.052 1168.21ZM811.287 1214.55C811.051 1218.09 814.132 1211.4 811.287 1214.55ZM880.94 1151.37C883.093 1156.22 885.632 1144.97 880.94 1151.37ZM808.873 1219.66 809.34 1219.79 808.873 1219.66ZM797.295 1228.62C800.009 1231.9 800.624 1222.51 797.295 1228.62ZM804.091 1224.5C808.059 1225.29 803.411 1221.24 804.091 1224.5ZM816.664 1213.4C816.711 1218.56 820.49 1209.24 816.664 1213.4ZM844.808 1188.59C851.255 1188.67 843.089 1184.09 844.808 1188.59ZM794.909 1233.58C799.047 1236.59 805.267 1227.8 794.909 1233.58ZM891.583 1145.77C881.977 1157.55 897.789 1142.51 891.583 1145.77ZM800.268 1229.96C800.446 1232.7 802.086 1227.21 800.268 1229.96ZM807.873 1223.45C808.878 1226.85 809.08 1221.32 807.873 1223.45ZM826.778 1207.2C831.008 1209.72 829.02 1202.63 826.778 1207.2ZM813.673 1218.79C811.741 1236.69 840.226 1218.52 822.933 1214.39 820.276 1214.2 816.521 1215.93 813.673 1218.79ZM822.123 1218.42C827.407 1216.17 818.888 1222.56 822.123 1218.42ZM803.495 1229.78C807.034 1229.12 801.833 1228.73 803.495 1229.78ZM893.181 1149.54C895.927 1148.7 890.944 1148.76 893.181 1149.54ZM892.357 1152.05C893.728 1149.05 888.267 1155.44 892.357 1152.05ZM848.562 1192.68C851.305 1199.65 855.69 1183.54 848.562 1192.68ZM830.505 1211.62C832.726 1212.73 830.277 1209.53 830.505 1211.62ZM894.26 1154.48C897.291 1152.99 890.905 1154.17 894.26 1154.48ZM835.433 1208.64C837.137 1210.32 836.143 1205.74 835.433 1208.64ZM831.597 1215.6C833.606 1223.38 839.787 1206.55 831.597 1215.6ZM838.734 1212.22C842.001 1210.29 836.342 1212.43 838.734 1212.22ZM829.563 1221.13C831.484 1224.37 832.424 1216.26 829.563 1221.13ZM832.891 1220.96C834.262 1222.96 833.437 1218.67 832.891 1220.96ZM836.454 1220.1C838.22 1225.04 842.293 1213.31 836.454 1220.1ZM833.135 1223.11C835.213 1223.88 832.79 1221.13 833.135 1223.11ZM831.908 1231.16C833.807 1227.82 823.667 1236.79 831.908 1231.16ZM833.651 1242.83C835.836 1241.4 829.87 1243.62 833.651 1242.83ZM841.434 1235.85C843.513 1236.62 841.09 1233.87 841.434 1235.85ZM859.968 1225.1C867.169 1222.77 853.067 1225.4 859.968 1225.1ZM864.082 1221.39C867.078 1218.79 861.115 1222.33 864.082 1221.39ZM848.279 1235.82C849.189 1232.8 843.884 1240.31 848.279 1235.82ZM866.361 1219.23C869.181 1217.69 864.195 1218.99 866.361 1219.23ZM874.626 1217.42C877.11 1219.31 875.146 1213.84 874.626 1217.42ZM868.705 1224.82C873.181 1224.93 869.699 1219.55 868.705 1224.82Z"
            fill="#B3B3B3" fill-rule="evenodd" />
        <path
            d="M791.498 1098.07C816.634 1074.4 852.862 1062.83 863.983 1079.31 875.453 1091.53 891.325 1100.24 898.601 1116.04 902.415 1132.88 896.774 1155.12 902.173 1171 902.002 1183.46 896.357 1201.62 880.293 1214.27 903.149 1190.23 897.746 1168.6 896.157 1150.62 895.782 1131.77 897.388 1109.61 880.944 1102.67 872.426 1091.57 856.928 1087.35 844.848 1081.22 848.194 1073.29 863.427 1085.19 852.51 1075.37 839.006 1072.26 815.925 1080.94 797.541 1094.78 775.4 1117.73 750.316 1141.37 735.931 1167.47 724.306 1184.09 725.731 1199.58 726.293 1212.3 730.291 1214.96 755.98 1215.88 739.193 1223.59 722.573 1224.67 762.253 1233.85 753.563 1228.81 776.354 1222.77 787.183 1234.16 805.365 1235.36 821.288 1234.11 828.968 1248.38 849.403 1237.44 868.331 1224.96 854.265 1240.59 843.494 1242.95 818.156 1251.23 801.988 1241.17 784.593 1236 770.894 1226.4 744.988 1236.37 728.652 1230.97 714.169 1224.5 710.977 1204.84 719.636 1183.67 734.832 1158.1 757.822 1133.04 779.746 1109.5 783.581 1105.61 787.5 1101.8 791.502 1098.07ZM839.622 1074.73C840.918 1078.55 843.247 1071.01 839.622 1074.73ZM724.83 1214.24C720.583 1222.92 729.044 1212.38 724.83 1214.24ZM876.471 1096.35C880.093 1090.53 869.812 1097.38 876.471 1096.35ZM740.803 1231.34C743.055 1235.94 742.555 1228.65 740.803 1231.34ZM743.548 1230.87C743.81 1234.61 747.165 1226.84 743.548 1230.87ZM822.359 1088.25C833.087 1085.28 840.22 1105.48 826.284 1098.07 823.086 1096.5 820.001 1093.66 822.359 1088.25ZM825.733 1088.45C824.761 1090.72 824.828 1086 825.733 1088.45ZM737.98 1174.93C736.742 1182.27 750.849 1195.57 738.729 1197.64 733.87 1193.16 733.875 1184.28 737.98 1174.93ZM731.705 1188.94C735.071 1187.02 731.062 1190.84 731.705 1188.94ZM788.532 1158.58C792.555 1166.3 814.51 1171.81 806.491 1181.58 793.731 1181.76 782.216 1174.28 788.532 1158.58ZM790.227 1169.85C790.645 1167.05 787.265 1172.92 790.227 1169.85ZM796.379 1171.64C797.532 1173.89 797.138 1169.34 796.379 1171.64ZM795.191 1176.48C794.758 1179.56 797.745 1173.77 795.191 1176.48ZM802.267 1179.59C803.314 1177.2 797.882 1183.35 802.267 1179.59ZM765.595 1184.48C768.195 1185.74 762.833 1185.13 765.595 1184.48ZM857.571 1101.38C866.641 1103.66 876.27 1119.35 870.33 1125.83 863.458 1119.82 862.93 1108.65 857.571 1101.38ZM763.217 1216.21C772.877 1215.21 789.937 1218.49 786.845 1224.93 777.302 1224.45 766.124 1224.49 763.217 1216.21ZM889.021 1134.74C888.835 1140.44 891.199 1161.16 884.15 1148.14 883.588 1144.49 884.914 1139.36 889.021 1134.74ZM879.001 1173.45C890.2 1172.07 881.178 1202.63 878.19 1185.03 877.677 1181.58 877.602 1177.78 879.001 1173.45ZM831.492 1225.59C843.564 1217.01 851.755 1232.83 835.791 1230.45 833.328 1230.14 828.965 1229.86 831.492 1225.59Z"
            fill="#606060" fill-rule="evenodd" />
    </g>
</svg>