<svg width="1018" height="720" xmlns="http://www.w3.org/2000/svg" xmlns:xlink="http://www.w3.org/1999/xlink"
    xml:space="preserve" overflow="hidden">
    <defs>
        <clipPath id="clip0">
            <rect x="680" y="151" width="1018" height="720" />
        </clipPath>
    </defs>
    <g clip-path="url(#clip0)" transform="translate(-680 -151)">
        <path
            d="M1588.56 599.604C1583.84 608.939 1570.86 616.24 1573.87 627.472 1577.72 623.799 1583.17 624 1579.9 626.979 1588.89 630.937 1585.78 615.464 1593.26 612.556 1587.39 607.184 1592.89 604.598 1588.56 599.604Z"
            fill-rule="evenodd" />
        <path
            d="M1499.88 552.32C1493.61 552.842 1485.27 569.651 1487.5 578.787 1498.05 571.535 1494.38 560.805 1499.88 552.32Z"
            fill-rule="evenodd" />
        <path
            d="M1524.58 780.581C1514.56 778.257 1504.33 792.567 1500.57 798.301 1511.22 800.779 1516.91 785.357 1524.58 780.581Z"
            fill-rule="evenodd" />
        <path
            d="M1427.24 672.173C1419.76 672.394 1409.46 688.724 1400.02 695.004 1412.11 695.906 1424.39 680.063 1427.24 672.173Z"
            fill-rule="evenodd" />
        <path
            d="M1235.73 731.449C1211.93 747.913 1188.09 709.749 1189.17 680.709 1207.22 676.581 1224.03 677.551 1241.03 677.683 1239.14 696.59 1251.9 720.262 1235.73 731.449ZM1194.77 689.948C1202 703.031 1206.3 720.833 1218.58 729.214 1261.12 717.36 1228.75 663.818 1194.77 689.948Z"
            fill-rule="evenodd" />
        <path
            d="M1218.8 672.239C1214.18 666.003 1202.26 668.434 1200.74 673.714 1206.21 675.438 1212.27 674.788 1218.8 672.239Z"
            fill-rule="evenodd" />
        <path
            d="M748.426 151.906C793.079 177.09 842.559 197.969 892.375 222.567 939.881 246.019 985.524 274.959 1033.1 298.334 1075.98 319.404 1127.79 336.572 1179.29 351.844 1232.38 367.592 1287.39 373.697 1329.6 396.532 1360.08 413.023 1390.97 445.283 1423.49 462.796 1444.95 474.358 1472.75 481.693 1498.68 493.014 1550.8 515.77 1598.56 558.822 1643.69 591.462 1670.45 610.826 1706.55 640.206 1695.44 661.169 1671.44 706.436 1614.64 658.353 1589.31 652.871 1556.33 638.335 1529.24 611.05 1495 596.339 1476.92 588.568 1455.36 588.032 1437.95 580.394 1414.37 570.059 1396.29 545.148 1366.96 557.105 1438.79 660.33 1533.97 732.262 1597.15 837.684 1565.37 924.99 1485.43 813.707 1443.97 772.629 1392.62 721.742 1353.88 671.395 1310.93 657.44 1296.97 680.241 1329.65 714.469 1318.72 738.011 1263.55 778.61 1233.64 716.05 1178.44 756.747 1153.89 742.443 1116.77 740.736 1094.92 728.419 1077.76 718.745 1066.38 697.291 1046.05 679.081 998.256 636.296 909.678 596.959 867.571 556.703 822.071 513.198 808.916 471.351 756.452 472.447 753.649 467.83 750.848 463.214 748.044 458.593 775.9 457.279 799.919 471.617 825.966 477.681 829.251 476.162 827.244 464.063 833.802 469.77 831.258 473.082 830.354 476.789 831.078 480.902 836.976 475.69 839.216 459.426 847.659 461.364 843.694 468.913 837.72 475.971 839.898 485.027 895.45 501.787 957.222 535.915 1009.26 540.277 967.238 517.09 918.133 496.081 892.456 431.039 937.873 504.118 1017.05 544.627 1086.6 537.596 1078.28 523.522 1064.28 513.74 1066.5 499.241 1068.84 503.086 1071.17 506.936 1073.51 510.787 1079.18 495.112 1071.02 465.629 1082.52 457.936 1052.56 505.621 1128.85 550.379 1151.8 608.63 1156.21 619.824 1152.05 635.075 1156.15 647.058 1170.47 688.95 1208.24 761.671 1241.79 730.967 1251.11 722.432 1251.57 681.985 1249.82 666.072 1246.43 635.12 1239.26 591.373 1227.13 566.116 1205.4 520.881 1160.16 492.125 1172.84 450.565 1179.88 465.399 1177.5 477.923 1189.73 494.025 1203.26 491.329 1198.32 473.996 1207.71 476.802 1205.78 484.451 1196.44 497.679 1207.37 502.284 1220.36 497.414 1234.53 487.735 1246.22 488.201 1233.11 497.449 1212.25 504.793 1209.75 516.634 1237.37 547.935 1254.16 589.306 1257.04 620.64 1344.31 638.485 1419.89 727.749 1494.2 808.531 1514.67 830.788 1555.34 879.12 1578.29 858.629 1591.32 846.987 1575.42 820.441 1564.13 804.03 1506.56 720.391 1415.7 639.773 1351.24 557.197 1347.64 553.268 1326.11 554.707 1335.91 547.539 1375.27 535.631 1409.87 555.952 1444.42 570.191 1458.33 575.922 1473.33 578.598 1488.04 584.81 1552.63 612.066 1598.05 661.809 1650.12 669.744 1668.38 672.523 1690.67 667.103 1689.38 645.932 1621.45 583.463 1545.35 529.181 1459.79 491.361 1415.33 471.707 1380.16 449.199 1342.73 423.361 1270.6 373.557 1172.52 364.882 1095.88 339.289 1053.8 325.236 1017.69 299.706 976.979 278.698 898.792 238.341 811.201 196.45 734.607 160.322 739.226 157.52 743.846 154.718 748.463 151.917ZM1269.6 641.409C1255.02 669.307 1265.12 703.243 1255.2 732.279 1269.1 742.424 1283.61 750.103 1303.85 734.369 1301.89 707.345 1295.05 661.445 1269.6 641.409ZM1138.48 638.793C1133.39 635.2 1126.37 665.1 1142.26 655.453 1138.92 649.387 1136.9 643.647 1138.48 638.793ZM1189.89 733.981C1172.79 700.493 1141.93 652.066 1121.55 683.811 1113.07 650.682 1080.98 606.152 1046.7 628.114 1068.59 629.358 1084.56 647.176 1086.76 673.324 1082.14 676.122 1077.52 678.928 1072.9 681.727 1080.24 694.568 1088.89 702.08 1097.13 711.259 1125.42 709.45 1158.03 755.328 1189.89 733.981ZM1047.68 640.148C1053.68 652.758 1053.25 663.797 1064.07 677.596 1068.69 674.794 1073.32 671.99 1077.93 669.189 1078.6 655.062 1063.23 633.306 1047.68 640.148Z"
            fill-rule="evenodd" />
        <path
            d="M1490.14 551.899C1490.27 544.322 1479.58 563.917 1478.18 568.635 1486.99 571.927 1486.27 556.325 1490.14 551.899Z"
            fill-rule="evenodd" />
        <path
            d="M1206.03 619.946C1200.56 618.219 1194.5 618.872 1187.98 621.422 1191.74 611.788 1208.4 618.036 1219.4 605.524 1203.72 605.456 1183.92 616.019 1172.23 621.498 1182.84 623.645 1193.51 625.588 1206.03 619.946Z"
            fill-rule="evenodd" />
        <path
            d="M801.859 375.405C803.701 382.407 802.188 388.595 797.318 393.958 760.261 371.276 720.481 359.736 682.632 340.298 710.511 373.696 763.486 374.138 797.387 409.704 801.76 400.942 801.996 391.171 806.06 382.335 814.781 376.175 819.111 387.922 827.833 381.766 780.629 352.327 731.135 332.3 680.666 316.218 712.336 339.492 764.257 349.587 801.859 375.405Z"
            fill-rule="evenodd" />
        <path
            d="M1022.44 401.69C1009.32 476.49 938.06 526.496 863.262 513.385 788.465 500.275 738.456 429.011 751.568 354.211 764.679 279.411 835.944 229.405 910.741 242.516 985.539 255.626 1035.55 326.89 1022.44 401.69Z"
            fill="#5F8DD3" fill-rule="evenodd" />
        <path
            d="M0.661155-0.0328412C1.0105-0.0328412 63.5947 102.756 63.5947 102.756 63.5947 102.756 44.7149 113.595 45.0646 113.595 45.4143 113.595-6.67831 33.533 0.661155-0.0306759Z"
            stroke="#000000" stroke-width="4.1232" stroke-linejoin="round" stroke-miterlimit="10" fill="#DADADB"
            fill-rule="evenodd" transform="matrix(0.282814 -0.959175 -0.959175 -0.282814 967.377 457.818)" />
        <path
            d="M871.728 382.08C871.728 382.08 838.141 341.683 830.089 341.125 826.287 338.812 815.566 316.954 819.769 309.093 823.118 302.16 840.788 283.103 860.45 298.826 880.36 315.568 862.469 329.281 859.285 336.893 856.101 344.506 876.877 372.191 887.508 367.084 879.743 375.092 871.224 381.485 871.729 382.082ZM858.125 332.137C878.264 311.399 842.725 285.15 828.269 305.582 813.539 329.321 845.991 347.326 858.125 332.137Z"
            stroke="#000000" stroke-width="4.1232" stroke-linejoin="bevel" stroke-miterlimit="10" fill="#3F3F3F"
            fill-rule="evenodd" />
        <path
            d="M997.651 405.257C997.429 405.527 878.293 388.527 878.293 388.527 878.293 388.527 881.922 367.062 881.7 367.333 881.478 367.603 976.399 378.26 997.649 405.256Z"
            stroke="#000000" stroke-width="4.1232" stroke-linejoin="bevel" stroke-miterlimit="10" fill="#DADADB"
            fill-rule="evenodd" />
        <path
            d="M891.825 381.908C894.608 376.253 886.593 370.536 882.686 376.762 879.559 383.026 888.394 388.001 891.825 381.908Z"
            stroke="#000000" stroke-width="2.57713" stroke-miterlimit="8" fill="none" fill-rule="evenodd" />
        <path d="M891.181 375.93C890.837 376.539 882.266 378.935 882.266 378.935" stroke="#000000"
            stroke-width="2.57713" stroke-miterlimit="8" fill="none" fill-rule="evenodd" />
        <path d="M891.938 379.563C891.766 379.868 883.195 382.263 883.195 382.263" stroke="#000000"
            stroke-width="2.57713" stroke-miterlimit="8" fill="none" fill-rule="evenodd" />
        <path
            d="M962.938 454.344C962.767 454.649 908.27 394.67 908.27 394.67 908.27 394.67 902.331 394.462 902.121 395.547 901.911 396.633 958.214 454.894 962.939 454.344Z"
            fill="#E6FFFF" fill-rule="evenodd" fill-opacity="0.74902" />
        <path d="M891.021 376.712 892.084 378.982 883.22 381.676 882.547 379.427 891.021 376.712Z" fill="#000000"
            fill-rule="evenodd" fill-opacity="0.321569" />
        <path
            d="M832.771 384.64C826.897 412.943 785.232 398.243 794.041 374.815 805.432 349.305 838.541 366.075 832.771 384.64ZM881.749 367.89C881.749 367.89 829.463 362.74 824.485 356.387 820.438 354.536 796.329 357.92 792.178 365.808 788.317 372.47 782.45 397.786 806.494 405.247 831.522 412.341 832.84 389.837 837.357 382.932 841.874 376.026 876.447 377.699 878.181 389.365 880.456 378.444 880.971 367.806 881.748 367.89Z"
            stroke="#000000" stroke-width="4.1232" stroke-linejoin="bevel" stroke-miterlimit="10" fill="#3F3F40"
            fill-rule="evenodd" />
    </g>
</svg>